<svg id="Layer_1" data-name="Layer 1" xmlns="http://www.w3.org/2000/svg" viewBox="0 0 512 512"><defs><style>.cls-1{fill:#141f38;}</style></defs><title>document-locked-outline</title><path class="cls-1" d="M128,256a12.8,12.8,0,0,1,12.8-12.8h89.6a12.8,12.8,0,0,1,0,25.6H140.8A12.8,12.8,0,0,1,128,256Zm179.2,38.4H140.8a12.8,12.8,0,0,0,0,25.6H307.2a12.8,12.8,0,0,0,0-25.6Zm-.38,51.2h-166a12.8,12.8,0,0,0,0,25.6h166a12.8,12.8,0,1,0,0-25.6ZM486.4,416v64a32,32,0,0,1-32,32H364.8a32.15,32.15,0,0,1-6.4-.65V512H89.6a64,64,0,0,1-64-64V64a64,64,0,0,1,64-64H268.94L422.4,153.6V335A38.43,38.43,0,0,1,448,371.2V384h6.4A32,32,0,0,1,486.4,416Zm-89.6-44.8V384h25.6V371.2a12.8,12.8,0,1,0-25.6,0ZM281.6,49.08V102.4A38.44,38.44,0,0,0,320,140.8h53.09ZM89.6,486.4H333.45a32.09,32.09,0,0,1-.65-6.4V416a32,32,0,0,1,32-32h6.4V371.2A38.43,38.43,0,0,1,396.8,335V166.4H320a64,64,0,0,1-64-64V25.6H89.6A38.44,38.44,0,0,0,51.2,64V448A38.44,38.44,0,0,0,89.6,486.4ZM460.8,416a6.41,6.41,0,0,0-6.4-6.4H364.8a6.41,6.41,0,0,0-6.4,6.4v64a6.41,6.41,0,0,0,6.4,6.4h89.6a6.41,6.41,0,0,0,6.4-6.4Zm-39.36,27.07a14.87,14.87,0,0,0-1.21-2.18,13.74,13.74,0,0,0-3.53-3.52,12.6,12.6,0,0,0-2.24-1.22,10.06,10.06,0,0,0-2.37-.7,11.91,11.91,0,0,0-5,0,10.55,10.55,0,0,0-2.43.7,14.92,14.92,0,0,0-2.18,1.22,13.85,13.85,0,0,0-3.52,3.52,14.91,14.91,0,0,0-1.22,2.18,11.51,11.51,0,0,0-.7,2.43,11,11,0,0,0-.26,2.5,12.89,12.89,0,0,0,12.8,12.8,12.48,12.48,0,0,0,9-3.77,12.08,12.08,0,0,0,2.81-4.1,12.92,12.92,0,0,0,1-4.92,11,11,0,0,0-.26-2.5A11.9,11.9,0,0,0,421.44,443.07Z"/></svg>